<?xml version="1.0" encoding="utf-8"?>
<!-- Generator: Adobe Illustrator 24.3.0, SVG Export Plug-In . SVG Version: 6.00 Build 0)  -->
<svg version="1.1" id="Capa_1" xmlns="http://www.w3.org/2000/svg" xmlns:xlink="http://www.w3.org/1999/xlink" x="0px" y="0px"
	 viewBox="0 0 2122 2122" style="enable-background:new 0 0 2122 2122;" xml:space="preserve">
<style type="text/css">
	.st0{display:none;fill:#FFFFFF;}
	.st1{fill:#DF969B;}
	.st2{fill:#B46B72;}
	.st3{fill:#F4ADAE;}
	.st4{fill:#CE7D82;}
	.st5{fill:#4B65AF;}
	.st6{fill:#365592;}
	.st7{fill:#7198CF;}
	.st8{fill:#A4BAE0;}
	.st9{fill:#FFD68C;}
	.st10{fill:#F7B63C;}
	.st11{fill:#999999;}
	.st12{fill:#F9B8BA;}
	.st13{fill:#FACBCF;}
	.st14{fill:#B7CCEA;}
	.st15{fill:#6D87C4;}
	.st16{fill:#FFFFFF;}
	.st17{fill:url(#SVGID_1_);}
	.st18{fill:#00AEEF;}
	.st19{fill:#5370B6;}
	.st20{fill:#F26766;}
	.st21{fill:#F0F0B1;}
	.st22{fill:#53134C;}
	.st23{fill:#59104A;}
	.st24{fill:#7782C0;}
	.st25{fill:#B6CBE9;}
	.st26{fill:#616AAE;}
	.st27{fill:#F5846F;}
	.st28{fill:#F79B85;}
	.st29{fill:#FAC360;}
	.st30{fill:#E14746;}
	.st31{fill:#F1645F;}
	.st32{fill:#C7CBE6;}
	.st33{fill:#EE7579;}
	.st34{fill:#1A2B56;}
	.st35{fill:#263873;}
	.st36{fill:#F58F8E;}
	.st37{fill:#4A6EB5;}
	.st38{fill:#2E3192;}
	.st39{fill:#4D4D4D;}
</style>
<g>
	<path class="st0" d="M3412.52,355.19l-2.48-2.48l-0.98,1.06c0,0-10.45-9.56-25.17-20.45l1.27,43.93l19.19-4.35
		C3406.92,367.01,3409.68,361.1,3412.52,355.19z"/>
	<path class="st0" d="M3904.98,613.95c-58.17,0-105.33,38.53-105.33,86.06c0,47.54,47.16,86.07,105.33,86.07
		c58.18,0,105.33-38.53,105.33-86.07C4010.32,652.48,3963.16,613.95,3904.98,613.95z"/>
	<path class="st0" d="M2934.32,1002.89h42.56c0.7,0,1.34-0.08,1.98-0.17h-44.48L2934.32,1002.89z"/>
	<path class="st0" d="M3172.67,353.77l-0.98-1.06l-15.98,15.99l38.76,9.52l2.96-44.59C3182.93,344.39,3172.67,353.77,3172.67,353.77
		z"/>
	<path class="st0" d="M2979.69,855.1h6.53c-2.17,0-4.3-0.17-6.44-0.32L2979.69,855.1z"/>
	<path class="st0" d="M2670.4,336.35c-10.36-50.66-21.86-99.61-35.43-145.9v310.68h25.91c0.89-33.36,2.52-68.93,4.98-105.89
		C2667.19,375.12,2668.72,355.47,2670.4,336.35z"/>
	<path class="st0" d="M2866.56,355.9c0.91-41.2,1.2-81.68,0.34-121.12l-11.14,67.45C2859.69,320.16,2863.27,338.05,2866.56,355.9z"
		/>
	<path class="st0" d="M3322.97,504.85c-10.79-1.08-21.49-2.19-32.1-3.31c-10.61,1.12-21.31,2.23-32.11,3.31H3322.97z"/>
	<path class="st0" d="M2244.18-705.86v2121.32H4365.5V-705.86H2244.18z M3165.97-77.29c3.59,0,7.08,0.41,10.44,1.16
		c0.77-50.44,41.87-91.09,92.48-91.09c6.84,0,13.5,0.77,19.92,2.17c20.79-40.97,63.29-69.06,112.37-69.06
		c63.27,0,115.64,46.66,124.6,107.45c10.16-5.02,21.59-7.86,33.7-7.86c41.24,0,74.8,32.77,76.11,73.69c2.64-0.55,5.38-0.86,8.2-0.86
		c21.96,0,39.76,17.8,39.76,39.76c0,21.96-17.8,39.76-39.76,39.76h-477.82c-26.27,0-47.57-21.3-47.57-47.57
		C3118.4-56,3139.7-77.29,3165.97-77.29z M4124.68,526.56l0.04,0.21c-39.92,13.79-68.25,48.42-68.25,88.99
		c0,40.33,20.27,64.98,67.56,88.74l-0.02,0.06c46.89,23.84,77.73,64.23,77.73,110.05c0,31.37-14.46,60.2-38.63,82.91l0,0.02
		c0,0-120.91,142.17-410.03,131.21c-3.05-0.12-6.13,0.06-9.24,0.06c-3.22,0-6.27-0.04-9.26-0.11c-0.57-0.02-1.14-0.03-1.71-0.05
		c-2.27-0.05-4.48-0.13-6.61-0.23c-28.68-1.2-56.52-5.4-83.27-12.25c-13.69,8.86-29.96,14.05-47.47,14.05h-106.95h-26.26h-537.87
		l-0.11,0.3h-19.83h-8.15h-7.12c-0.23-0.94-0.43-1.91-0.66-2.86c-10.29,5.95-22.06,9.51-34.54,9.87c-1.52,0.04-3-0.05-4.5-0.1
		l-0.25,0.08c-9.86-0.06-22.13-2.24-35.5-5.7c-2.02-0.24-4.04-0.47-6.05-0.72l-0.1,1.24h-84.84h-158.21
		c-30.02,9.27-52.3,14.28-52.3,14.28l-7.16-13.56c-9.38,2.29-17.19,4.14-22.71,5.42c-16.99,12.69-25.6-0.36-25.6-0.36
		s-7.64-6.47-19.9-24.4c-31.09,0.07-53.05-0.5-54-0.53c-17.73,5.22-22.27-5.76-22.27-5.76s-13.49-20.51-23.98-77.09
		c-7.51-40.52,20.98,19,37.75,56.05c13.63-3.37,27.3-6.45,40.76-9.28c-0.87-1.64-1.72-3.23-2.6-4.97
		c-10.53-20.59-0.8-13.28,14.39,2.56c0.67-0.13,1.34-0.27,2.01-0.4l-1.21-4.68c22.65-4.83,44.36-8.84,64.69-12.16l-35.66-456.36
		h27.49l-33.78-315.3l0,0l-0.54-5.04l-4.21-39.34l-0.1-0.97l-3.38-31.54C2440.39,91.5,2453,75.87,2470.43,74
		c17.42-1.87,33.06,10.74,34.93,28.16l3.38,31.55l1.27,11.87l0.52,4.87l1.27,11.88l0.52,4.86l1.28,11.88l34.5,322.06h23.43v-345.8
		v-11.95v-4.89v-11.94v-4.9v-10.96v-0.98V77.97c0-11.05,5.66-20.78,14.23-26.45c-2.77-7.72-5.39-15.27-7.91-22.69l-1.46-1.49
		c-1.27-1.3-1.44-3.22-0.63-4.74c-61.89-185.88-42.7-273.4-34.64-297.25c-0.84-3.99-1.23-6.15-1.26-6.3
		c-0.38-2.22,1.13-4.33,3.32-4.71c2.21-0.39,4.32,1.09,4.71,3.32c0.02,0.14,0.36,2.01,1.09,5.47c25.27,23.25,48.82,47.7,70.7,73.23
		c0.64-0.55,1.4-0.96,2.3-1.04c2.25-0.17,4.21,1.51,4.38,3.76l0.45,5.8c87.19,104.41,147.62,225.51,188.91,350.41l0.09-0.54
		l2.23-13.49l6.03,0.99l4.09-24.8c2.3-13.92,15.42-23.35,29.34-21.11c-1.81-14.43-3.82-28.69-6.26-42.61
		c-0.99-5.67-1.92-11.23-2.82-16.75l-1.22-1.84c-0.98-1.48-0.84-3.34,0.17-4.68c-2.93-18.36-5.37-35.88-7.38-52.58l-1.1-1.74
		c-0.97-1.53-0.75-3.43,0.34-4.75c-22.39-194.59,14.38-276.33,27.17-298.05c0-4.07,0.06-6.27,0.07-6.42c0.08-2.25,2-4,4.21-3.93
		c2.25,0.07,4.01,1.96,3.94,4.21c-0.01,0.14-0.06,2.04-0.07,5.58c19.95,27.95,37.95,56.73,54.11,86.21c0.75-0.42,1.59-0.68,2.5-0.56
		c2.23,0.29,3.8,2.34,3.51,4.57l-0.75,5.73c69.37,130.39,103.83,273.58,116.3,415.39c0.81-0.09,1.64-0.02,2.41,0.39
		c1.98,1.07,2.7,3.55,1.62,5.53l-3.1,5.69c7.03,88.27,5.73,175.84-0.85,259.28c5.41-15.05,18.67-26.73,35.59-29.34l72-17.62
		l-42.78-5.37c-0.86,0.11-1.71,0.26-2.6,0.26c-12.04,0-21.79-9.75-21.79-21.79c0-6.25,2.67-11.84,6.88-15.81l44.52-44.52
		l-17.22-18.58c22.7-33,51.69-51.53,72.29-61.35c3-5.81,5.03-12.56,5.06-20.65c0.18-41.77,52.07-23.7,36.77-69.34
		c-10.55-31.47,11.91-33.19,26.87-31.22c6.05-8.66,28.34-35.38,60.25-13.23c37.64,26.13,3.41,56.31,14.22,77.02
		c9.33,17.88,80.3,31.09,68.63,71.43c13.14,8.9,27.17,20.84,39.9,36.68c72.09-107.25,198.2-203.85,418.5-228.14
		c21.69-3.27,44.11-4.99,67.07-4.99c187.67,0,339.8,114.61,339.8,255.98C4274.26,402.7,4243.87,471.84,4124.68,526.56z"/>
	<path class="st0" d="M3048.37,477.99c-0.82,9.01-1.71,17.96-2.64,26.86h18.19C3055.98,498.23,3050.27,488.91,3048.37,477.99z"/>
	<path class="st1" d="M357.18,701.87l24.12,24.76c15.29,1.49,27.37,13.84,28.49,29.24l53.94,55.35
		c-21.43-64.14-38.48-104.68-38.86-105.57c-5.99-12.7-11.65-25.04-17.04-37.07l-0.03-0.07c-64.06-143.05-86.59-238.39-91.75-262.94
		c-8.05,23.85-27.25,111.38,34.64,297.25l0.7-1.03C353.03,700.23,355.6,700.26,357.18,701.87z"/>
	<path class="st1" d="M524.63,1036.75c-0.73,14.45-1.58,29.16-2.57,44.12c-2.26,34.02-5.07,66.73-8.26,97.62l2.15,2.86h17.6
		l7.6-46.03C536.78,1101.87,531.12,1068.8,524.63,1036.75z"/>
	<path class="st1" d="M352.79,709.06c2.52,7.42,5.14,14.96,7.91,22.69c3.01-1.99,6.38-3.46,9.97-4.33L352.79,709.06z"/>
	<path class="st1" d="M432.32,702.33c0.41,0.97,18.58,44.16,41.01,111.95c10.09-46.32,20.83-73.79,30.5-73.15
		c19.27,1.28,28,113.63,22.25,263.19c4.59,20.69,8.9,41.91,12.79,63.49l29.79-99.07l19.5-118.13l1.93-11.72l0.56-3.38
		C549.36,710.6,488.93,589.5,401.74,485.09l13.72,180.55C420.79,677.55,426.4,689.76,432.32,702.33z"/>
	<path class="st1" d="M393.17,479.92c-0.1-1.35,0.51-2.53,1.46-3.34c-21.87-25.52-45.43-49.98-70.7-73.23
		c4.55,21.86,24.74,108.46,81.65,239.84L393.17,479.92z"/>
	<path class="st1" d="M543.13,1081.96c-0.25,0.84-0.8,1.47-1.45,1.97c1.37,8.11,2.68,16.26,3.92,24.45l12.69-76.84L543.13,1081.96z"
		/>
	<path class="st1" d="M445.35,1016.58c5.36-60.93,12.31-116.02,19.98-160.68l-55.41-54.56v0.53v4.9v11.94v4.89v11.95v35.13
		C423.48,916.97,434.98,965.91,445.35,1016.58z"/>
	<path class="st1" d="M597.87,1181.35h26.21l-10.99,140.63c2.83-1.09,14.26-5.11,19.52-1.3c1.05-57.36,3.3-115,5.4-172l-5.12-10.39
		c-1-2.02-0.16-4.46,1.86-5.46c1.28-0.63,2.69-0.46,3.83,0.2c0.48-13.46,0.95-26.9,1.39-40.27l-3.41-7.27
		c-0.95-2.04-0.08-4.46,1.96-5.42c0.61-0.28,1.23-0.36,1.85-0.34c0.45-14.62,0.84-29.15,1.16-43.61
		c-3.29-17.84-6.88-35.74-10.8-53.67L597.87,1181.35z"/>
	<path class="st1" d="M470.02,830.34c-0.27-0.83-0.54-1.66-0.81-2.49c-0.59-0.2-1.16-0.51-1.62-0.99l-57.67-59.18v22.21l57.12,56.25
		C468.03,840.7,469.01,835.43,470.02,830.34z"/>
	<path class="st2" d="M541.15,1135.32l4.45-26.94c-1.24-8.19-2.55-16.34-3.92-24.45c0.64-0.5,1.2-1.13,1.45-1.97l15.16-50.42
		l10.37-62.8l-29.79,99.07c-3.89-21.57-8.2-42.8-12.79-63.49c-0.41,10.63-0.89,21.45-1.45,32.43
		C531.12,1068.8,536.78,1101.87,541.15,1135.32z"/>
	<path class="st2" d="M407.85,668.59c5.39,12.03,11.04,24.38,17.04,37.07c0.38,0.88,17.43,41.43,38.86,105.57l-53.94-55.35
		c0.06,0.77,0.12,1.54,0.12,2.32v9.48l57.67,59.18c0.46,0.48,1.03,0.79,1.62,0.99c0.27,0.83,0.54,1.66,0.81,2.49
		c1.1-5.57,2.2-10.94,3.32-16.06c-22.43-67.8-40.6-110.98-41.01-111.95c-5.93-12.56-11.53-24.78-16.86-36.68l-13.72-180.55
		l-0.45-5.8c-0.17-2.25-2.13-3.93-4.38-3.76c-0.89,0.07-1.66,0.48-2.3,1.04c-0.95,0.82-1.56,2-1.46,3.34l12.41,163.27
		c-56.91-131.39-77.1-217.98-81.65-239.84c-0.73-3.46-1.06-5.34-1.09-5.47c-0.39-2.22-2.5-3.71-4.71-3.32
		c-2.19,0.38-3.7,2.49-3.32,4.71c0.02,0.15,0.42,2.31,1.26,6.3c5.16,24.55,27.69,119.89,91.75,262.94L407.85,668.59z"/>
	<path class="st2" d="M378.19,726.48L378.19,726.48c1.05,0,2.09,0.06,3.12,0.16l-24.12-24.76c-1.58-1.61-4.16-1.65-5.77-0.07
		l-0.7,1.03c-0.81,1.52-0.64,3.44,0.63,4.74l1.46,1.49l17.88,18.36C373.09,726.82,375.6,726.48,378.19,726.48z"/>
	<path class="st2" d="M467.04,846.14l-57.12-56.25v0.03v0.98v10.43l55.41,54.56C465.89,852.59,466.47,849.33,467.04,846.14z"/>
	<path class="st2" d="M513.52,1181.35h2.44l-2.15-2.86C513.7,1179.43,513.61,1180.41,513.52,1181.35z"/>
	<path class="st3" d="M628.93,710.84l78.64,118.43c-0.99-10.73-2.03-21.07-3.1-30.97c-0.54-0.32-1.03-0.74-1.39-1.3l-88.16-138.89
		c2.01,16.7,4.46,34.21,7.38,52.58l0.97-0.97C625.16,708.44,627.69,708.97,628.93,710.84z"/>
	<polygon class="st3" points="679.44,1710.76 699.26,1710.76 699.38,1710.46 679.42,1710.46 	"/>
	<path class="st3" d="M653.64,806.01l-4.09,24.8l6.03,0.99l-1.36,8.24l9.68,1.6l0.3-1.84c0.86-5.19,5.76-8.7,10.95-7.84
		c5.19,0.86,8.7,5.76,7.85,10.95L666.25,944.4c-0.86,5.19-5.76,8.71-10.95,7.85c-5.19-0.86-8.7-5.76-7.84-10.95l14.23-86.25
		l-9.68-1.6l-1.24,7.5L641.84,915c0.86,39.44,0.58,79.93-0.34,121.12c-0.32,14.46-0.71,28.99-1.16,43.61
		c1.49,0.04,2.9,0.86,3.58,2.29l58.8,125.41c2.12-21.55,4.28-43.14,6.45-64.72c10.74-106.64,6.93-214.23-0.41-299.83
		c-1.2-0.1-2.36-0.61-3.07-1.7l-82.35-124c0.9,5.52,1.84,11.09,2.82,16.75c2.43,13.93,4.45,28.19,6.26,42.61l0.1,0.01
		C646.5,778.87,655.95,792.06,653.64,806.01z"/>
	<path class="st3" d="M663.5,1707.9c0.23,0.95,0.43,1.91,0.66,2.86h7.12c-0.09-2.59-0.14-5.27-0.21-7.93
		C668.64,1704.65,666.14,1706.38,663.5,1707.9z"/>
	<path class="st3" d="M701.97,1638.94h-0.08c0.04,1.04,0.14,2.07,0.13,3.13c-0.13,15.05-4.72,29.16-12.46,41.05h19.71l0.06-0.17
		h-2.34v-60.04v-59.99h-7.17C702.62,1603.66,701.97,1638.94,701.97,1638.94z"/>
	<path class="st3" d="M692.62,1502.17c1.97,10.57,3.53,21.82,4.77,33.15h57.24l0.09-0.32
		C729.58,1533.17,707.41,1520.77,692.62,1502.17z"/>
	<path class="st3" d="M694.16,667.87c0.41,2.05,34.89,180.2,29.2,379.57l98.68-181.08c0.66-1.2,1.85-1.87,3.12-2.02
		c-12.47-141.81-46.93-285-116.3-415.39L685.19,628.5C687.97,641.25,690.94,654.35,694.16,667.87z"/>
	<path class="st3" d="M722.79,1063.79c-1.04,26.41-2.81,53.1-5.5,79.74c-1.91,18.98-3.81,37.97-5.68,56.93
		c14.09-9.7,31.15-15.39,49.54-15.39h59.52c0.93-8.9,1.82-17.85,2.64-26.86l-0.19-0.89c-1.18-7.7-0.34-15.25,2.12-22.09
		c6.58-83.45,7.88-171.01,0.85-259.28l-101.48,186.21C724.2,1062.93,723.53,1063.44,722.79,1063.79z"/>
	<path class="st3" d="M761.16,1360.2c-3.96,0-7.83-0.36-11.65-0.87l-1.28,1.92C752.46,1360.63,756.76,1360.2,761.16,1360.2z"/>
	<path class="st3" d="M620.71,651.98l81.82,128.91c-7.79-67.18-16.16-110.36-16.34-111.3c-3.25-13.66-6.26-26.9-9.06-39.79
		l-0.02-0.07c-33.31-153.18-35.77-251.12-35.78-276.19c-12.8,21.72-49.57,103.46-27.17,298.05l0.91-0.88
		C616.99,649.52,619.5,650.08,620.71,651.98z"/>
	<path class="st3" d="M701.53,442.15c0.18-1.32,1-2.34,2.07-2.95c-16.16-29.47-34.15-58.25-54.11-86.21
		c-0.03,22.36,1.94,111.24,30.64,251.5L701.53,442.15z"/>
	<path class="st3" d="M736.81,1363.7l3.98-5.98c-16.15-3.86-30.59-12.11-41.88-23.54c-1.75,19.42-3.43,38.62-5.02,57.55
		C704.93,1378.5,719.81,1368.62,736.81,1363.7z"/>
	<path class="st3" d="M632.6,1320.69c2.09,1.51,3.2,4.24,2.39,8.91c0,0,15.73,10.1,5.75,30.71c3.51-0.59,6.94,1.59,7.8,5.11
		c0.91,3.69-1.35,7.41-5.04,8.32c-1.32,0.33-2.65,0.23-3.85-0.18c1.12,6.39,1.32,11.98,0.84,16.87
		c4.35,37.75,19.11,48.54,19.11,48.54l0,0.01c3.34,1.71,6.65,3.8,9.86,6.38c1.48,1.19,2.88,2.7,4.22,4.34
		c-0.01-0.64-0.09-1.27-0.09-1.92c0-15.4,4-29.85,10.98-42.43c2.14-26.1,4.46-52.75,6.92-79.8c-11.19-14.71-17.9-33-17.9-52.91
		c0-12.82,2.82-24.95,7.76-35.92L638,1148.68C635.9,1205.69,633.65,1263.33,632.6,1320.69z"/>
	<path class="st3" d="M640.19,1134.69l45.86,93.11c3.04-5.09,6.59-9.83,10.57-14.19l-56.67-120.84c-0.43,13.38-0.9,26.81-1.39,40.27
		C639.22,1133.42,639.83,1133.94,640.19,1134.69z"/>
	<path class="st4" d="M673.6,1710.46v-9.61c-0.84,0.68-1.67,1.34-2.53,1.98c0.07,2.66,0.13,5.34,0.21,7.93h8.15l-0.01-0.3H673.6z"/>
	<path class="st4" d="M693.89,1391.74c1.59-18.93,3.27-38.13,5.02-57.55c-2.67-2.7-5.11-5.62-7.41-8.64
		c-2.46,27.04-4.78,53.7-6.92,79.8C687.26,1400.51,690.37,1395.95,693.89,1391.74z"/>
	<path class="st4" d="M708.78,842.89c7.34,85.59,11.14,193.19,0.41,299.83c-2.18,21.57-4.33,43.17-6.45,64.72l-58.8-125.41
		c-0.68-1.43-2.09-2.25-3.58-2.29c-0.62-0.02-1.25,0.06-1.85,0.34c-2.04,0.96-2.91,3.38-1.96,5.42l3.41,7.27l56.67,120.84
		c4.5-4.91,9.49-9.36,15-13.14c1.87-18.96,3.77-37.96,5.68-56.93c2.69-26.64,4.46-53.34,5.5-79.74c0.74-0.36,1.41-0.86,1.82-1.63
		L826.1,875.95l3.1-5.69c1.08-1.98,0.35-4.45-1.62-5.53c-0.77-0.42-1.61-0.49-2.41-0.39c-1.27,0.15-2.46,0.82-3.12,2.02
		l-98.68,181.08c5.7-199.37-28.79-377.52-29.2-379.57c-3.22-13.51-6.19-26.62-8.97-39.37l23.66-179.55l0.75-5.73
		c0.3-2.23-1.27-4.28-3.51-4.57c-0.91-0.12-1.76,0.14-2.5,0.56c-1.07,0.61-1.89,1.63-2.07,2.95l-21.4,162.34
		c-28.7-140.26-30.66-229.14-30.64-251.5c0.01-3.54,0.06-5.44,0.07-5.58c0.07-2.25-1.69-4.14-3.94-4.21
		c-2.22-0.07-4.14,1.68-4.21,3.93c0,0.16-0.07,2.35-0.07,6.42c0.01,25.07,2.47,123.01,35.78,276.19l0.02,0.07
		c2.8,12.89,5.8,26.13,9.06,39.79c0.18,0.93,8.55,44.12,16.34,111.3l-81.82-128.91c-1.21-1.9-3.73-2.46-5.63-1.26l-0.91,0.88
		c-1.09,1.32-1.31,3.22-0.34,4.75l1.1,1.74l88.16,138.89c0.36,0.56,0.85,0.99,1.39,1.3c1.07,9.91,2.11,20.24,3.1,30.97
		l-78.64-118.43c-1.24-1.87-3.77-2.4-5.65-1.14l-0.97,0.97c-1.02,1.34-1.16,3.2-0.17,4.68l1.22,1.84l82.35,124
		C706.42,842.27,707.58,842.78,708.78,842.89z"/>
	<path class="st4" d="M748.22,1361.26l1.28-1.92c-2.96-0.39-5.86-0.93-8.71-1.61l-3.98,5.98
		C740.52,1362.63,744.33,1361.84,748.22,1361.26z"/>
	<path class="st4" d="M638.56,1133.03c-1.14-0.67-2.55-0.83-3.83-0.2c-2.02,0.99-2.86,3.44-1.86,5.46l5.12,10.39l43.36,88.04
		c1.39-3.08,2.97-6.05,4.69-8.93l-45.86-93.11C639.83,1133.94,639.22,1133.42,638.56,1133.03z"/>
	<path class="st5" d="M513.8,1178.49c3.19-30.89,6-63.6,8.26-97.62c1-14.96,1.84-29.66,2.57-44.12c0.55-10.99,1.04-21.8,1.45-32.43
		c5.75-149.55-2.98-261.91-22.25-263.19c-9.67-0.64-20.41,26.83-30.5,73.15c-1.11,5.12-2.22,10.49-3.32,16.06
		c-1,5.09-1.99,10.36-2.98,15.8c-0.57,3.19-1.15,6.45-1.71,9.76c-7.67,44.65-14.62,99.75-19.98,160.68
		c-1.68,19.12-3.21,38.77-4.55,58.89c-2.46,36.96-4.09,72.53-4.98,105.89h61.91h15.79C513.61,1180.41,513.7,1179.43,513.8,1178.49z
		 M506.08,812.37c-6.98,0-12.64-10.67-12.64-23.82c0-13.16,5.66-23.82,12.64-23.82c6.98,0,12.64,10.66,12.64,23.82
		C518.73,801.71,513.07,812.37,506.08,812.37z"/>
	<polygon class="st5" points="545.6,1108.38 541.15,1135.32 533.56,1181.35 565.31,1181.35 619.06,855.71 588.16,850.61 
		568.66,968.74 558.29,1031.54 	"/>
	<polygon class="st6" points="597.87,1181.35 630.7,982.46 641.84,915 650.77,860.95 619.06,855.71 565.31,1181.35 	"/>
	<path class="st5" d="M653.64,806.01c2.3-13.96-7.14-27.14-21.1-29.45l-0.1-0.01c-13.92-2.24-27.05,7.19-29.34,21.11l-4.09,24.8
		l50.55,8.35L653.64,806.01z"/>
	<polygon class="st7" points="588.16,850.61 619.06,855.71 650.77,860.95 652.01,853.45 661.69,855.05 663.9,841.66 654.22,840.05 
		655.58,831.81 649.55,830.82 599,822.47 592.97,821.48 590.74,834.97 590.65,835.51 590.1,838.89 	"/>
	<path class="st8" d="M655.29,952.24c5.19,0.86,10.09-2.66,10.95-7.85L683,842.92c0.86-5.19-2.66-10.1-7.85-10.95
		c-5.19-0.86-10.1,2.66-10.95,7.84l-0.3,1.84l-2.21,13.39l-14.23,86.25C646.59,946.48,650.1,951.39,655.29,952.24z"/>
	<rect x="346.47" y="835.55" class="st9" width="31.32" height="345.8"/>
	<rect x="346.47" y="801.87" class="st9" width="31.32" height="4.9"/>
	<rect x="346.47" y="818.71" class="st9" width="31.32" height="4.89"/>
	<rect x="377.79" y="818.71" class="st10" width="32.13" height="4.89"/>
	<polygon class="st10" points="409.92,835.55 377.79,835.55 377.79,1181.35 409.92,1181.35 409.92,870.67 	"/>
	<rect x="377.79" y="801.87" class="st10" width="32.13" height="4.9"/>
	<polygon class="st11" points="409.92,801.87 409.92,801.34 409.92,790.91 409.92,789.92 346.47,789.92 346.47,790.91 
		346.47,801.87 377.79,801.87 	"/>
	<polygon class="st11" points="409.92,818.71 409.92,806.76 377.79,806.76 346.47,806.76 346.47,818.71 377.79,818.71 	"/>
	<polygon class="st11" points="409.92,835.55 409.92,823.6 377.79,823.6 346.47,823.6 346.47,835.55 377.79,835.55 	"/>
	<path class="st12" d="M409.92,789.89v-22.21v-9.48c0-0.78-0.06-1.55-0.12-2.32c-1.12-15.4-13.2-27.75-28.49-29.24
		c-1.02-0.1-2.06-0.16-3.11-0.16h0c-2.59,0-5.1,0.35-7.52,0.94c-3.6,0.87-6.96,2.34-9.97,4.33c-8.57,5.68-14.23,15.4-14.23,26.45
		v31.73h63.45V789.89z M398.69,763.81c-4.65,3.47-12.93,0.25-18.5-7.21c-5.57-7.45-6.32-16.31-1.67-19.79
		c4.65-3.47,12.93-0.25,18.5,7.21C402.59,751.48,403.33,760.34,398.69,763.81z"/>
	<path class="st13" d="M378.51,736.82c-4.65,3.48-3.9,12.33,1.67,19.79c5.57,7.45,13.85,10.68,18.5,7.21
		c4.65-3.47,3.9-12.34-1.67-19.79C391.45,736.57,383.16,733.35,378.51,736.82z"/>
	<polygon class="st5" points="256.59,862.71 225.44,866.05 259.22,1181.35 290.73,1181.35 	"/>
	<polygon class="st5" points="255.32,850.84 254.8,845.98 223.65,849.31 222.38,837.43 253.53,834.1 253.01,829.23 221.86,832.57 
		220.69,821.67 224.9,861.01 224.17,854.17 	"/>
	
		<rect x="253.17" y="827.51" transform="matrix(0.9943 -0.1065 0.1065 0.9943 -86.8758 33.4014)" class="st6" width="32.12" height="4.9"/>
	
		<rect x="254.97" y="844.25" transform="matrix(0.9943 -0.1066 0.1066 0.9943 -88.7472 33.7311)" class="st6" width="32.12" height="4.89"/>
	<polygon class="st6" points="290.73,1181.35 323.04,1181.35 288.54,859.29 256.59,862.71 	"/>
	<polygon class="st8" points="253.01,829.23 284.95,825.81 283.67,813.94 220.59,820.69 220.69,821.67 221.86,832.57 	"/>
	<polygon class="st8" points="222.38,837.43 223.65,849.31 254.8,845.98 286.74,842.55 285.47,830.68 253.53,834.1 	"/>
	<polygon class="st8" points="288.54,859.29 287.26,847.42 255.32,850.84 224.17,854.17 224.9,861.01 225.44,866.05 225.44,866.05 
		256.59,862.71 	"/>
	<path class="st12" d="M280.29,782.39c-1.87-17.42-17.5-30.03-34.93-28.16c-17.42,1.87-30.03,17.5-28.16,34.92l3.38,31.54
		l63.09-6.76L280.29,782.39z M269.72,789.17c-4.25,3.95-12.83,1.62-19.16-5.2c-6.34-6.82-8.02-15.55-3.77-19.5
		c4.25-3.95,12.84-1.62,19.17,5.19C272.29,776.49,273.98,785.21,269.72,789.17z"/>
	<path class="st13" d="M246.79,764.48c-4.25,3.95-2.56,12.68,3.77,19.5c6.33,6.82,14.91,9.14,19.16,5.2
		c4.25-3.95,2.57-12.68-3.77-19.5C259.63,762.85,251.04,760.53,246.79,764.48z"/>
	<path class="st8" d="M393.56,1611.54c-44.39-2,3.28-5.63,3.28-5.63c-64.96-4.53,0.46-5.77,0.46-5.77c-60.42-7.32,4.7-6.05,4.7-6.05
		s-2.87-0.46-6.54-1.08h-37.18v-0.59l-56.22-97.38l10.91-6.3l52.93,91.67h57.62l0.19-0.12c10.39-2.32,29.31-1.28,44.26,0.12h25.25
		v3.18l4.53,0.84v-403.08h-61.91h-25.91h-32.13h-31.32h-23.43h-32.31h-31.5h-27.49l35.66,456.36c37.22-6.07,69.78-9.84,94.91-12.16
		C373.38,1620.47,383.97,1615.74,393.56,1611.54z"/>
	<path class="st8" d="M436.53,1683.03L436.53,1683.03c-11.95,3.05-23.95,5.55-35.86,7.63c-21.08,8.82-42.59,16.19-61.16,21.91
		h158.21v-15.45C471.91,1691.83,450.44,1686.61,436.53,1683.03z"/>
	<path class="st14" d="M545.15,1554.08l-0.49-0.17c0,0,13.21-42.71,11.23-74.11h0.04c-0.26-1.56-0.46-3.14-0.51-4.76
		c-0.63-19.56,14.72-35.93,34.28-36.56c1.26-0.04,2.51-0.01,3.75,0.09c6.84-9.22,8.47-20.95,7.86-31.87
		c-1.45-2.77-2.9-6.24-4.37-10.55l-9.39,2.3l1.54-28.69c-4.34-0.04-9.12-0.76-14.46-2.48c-4.09,1.64-8.54,2.56-13.21,2.56
		c-19.66,0-35.59-15.94-35.59-35.59c0-19.66,15.93-35.6,35.59-35.6c12.22,0,23,6.16,29.4,15.55c10.29-2.64,21.14-2.81,21.57,8.05
		l0.7-0.27l10.99-140.63h-26.21h-32.56h-31.75h-17.6h-2.44h-15.79v403.08l33.45,6.16L545.15,1554.08z"/>
	<path class="st14" d="M497.73,1712.57h84.84l0.1-1.24c-30.41-3.8-59.72-9.03-84.94-14.21V1712.57z"/>
	<path class="st15" d="M506.08,764.74c-6.98,0-12.64,10.66-12.64,23.82c0,13.15,5.66,23.82,12.64,23.82
		c6.98,0,12.64-10.67,12.64-23.82C518.73,775.4,513.07,764.74,506.08,764.74z"/>
	<path class="st16" d="M1709.4,738.66c-22.96,0-45.38,1.72-67.07,4.99c-220.3,24.29-346.41,120.89-418.5,228.14
		c2.71,3.38,5.37,6.92,7.95,10.66l-17.23,18.58l44.52,44.52c4.21,3.97,6.88,9.57,6.88,15.81c0,12.04-9.75,21.79-21.79,21.79
		c-0.89,0-1.74-0.16-2.6-0.26l-49.42,6.2l68.25,16.41v0.01l0.59-0.04l1.09-0.07l0.67-0.04l0,0.04c2.64-0.07,5.32,0.06,8.03,0.47
		c24.61,3.79,41.5,26.82,37.7,51.43c-1.74,11.31-7.57,20.95-15.73,27.75h165.26v27.59h-33.38v59.99v60.04h-39.15l-0.01,0.17h72.55
		v27.35v27.59h-33.38v59.99v11.89c50.63,0.88,91.38,34.62,91.38,76.2c0,32.38-24.69,60.02-59.52,71.1
		c0.95,5.17,1.52,10.48,1.52,15.93c0,30.85-15.99,57.91-40.1,73.51c26.75,6.86,54.59,11.06,83.27,12.25
		c2.13,0.1,4.34,0.18,6.61,0.23c0.57,0.02,1.14,0.03,1.71,0.05c2.98,0.06,6.04,0.11,9.26,0.11c3.11,0,6.19-0.18,9.24-0.06
		c289.12,10.95,410.03-131.21,410.03-131.21l0-0.02c24.17-22.71,38.63-51.54,38.63-82.91c0-45.82-30.84-86.21-77.73-110.05
		l0.02-0.06c-47.3-23.77-67.56-48.41-67.56-88.74c0-40.57,28.33-75.2,68.25-88.99l-0.04-0.21
		c119.19-54.72,149.58-123.86,149.58-212.14C2049.2,853.27,1897.06,738.66,1709.4,738.66z M1473.39,1072.19
		c-2.53,19.96-7.98,33.82-14.32,33.82c-2.21,0-4.31-1.69-6.23-4.73c-0.89,0.79-1.8,1.57-2.73,2.34
		c-2.43,32.91-8.02,55.95-14.53,55.95c-5.43,0-10.21-16.02-13.06-40.4c-7.12,2.62-14.73,4.54-22.67,5.64
		c-0.36,31.21-7.27,56.13-15.78,56.13c-8.51,0-15.43-24.94-15.78-56.17c-43.98-6.17-77.46-37.46-77.46-75.16
		c0-42.13,41.8-76.28,93.36-76.28c51.56,0,93.36,34.15,93.36,76.28C1477.55,1057.47,1476.09,1065.05,1473.39,1072.19z
		 M1523.97,928.46c0-5.77,0.1-11.45,0.27-17.04c-0.16-1.84-0.27-3.68-0.27-5.55c0-42.13,41.8-76.28,93.36-76.28
		c51.56,0,93.36,34.15,93.36,76.28c0,6.73-1.08,13.25-3.08,19.47c-2,38.29-11.09,67.2-22.01,67.2c-6.09,0-11.61-9.02-15.66-23.65
		c-10.38,5.79-22.25,9.91-35.05,11.9c-3.62,27.9-11.31,47.16-20.23,47.16c-6.34,0-12.05-9.77-16.13-25.44
		c-6.91,44.27-19.82,74.07-34.6,74.07C1541.87,1076.56,1523.97,1010.25,1523.97,928.46z M1679.93,1466.3
		c-58.17,0-105.33-38.53-105.33-86.07c0-47.53,47.16-86.06,105.33-86.06c58.18,0,105.33,38.53,105.33,86.06
		C1785.26,1427.77,1738.1,1466.3,1679.93,1466.3z"/>
	
		<linearGradient id="SVGID_1_" gradientUnits="userSpaceOnUse" x1="-505.2061" y1="-223.4597" x2="-500.217" y2="-223.4597" gradientTransform="matrix(171.7896 0 0 -171.7896 87981.2812 -37163.9375)">
		<stop  offset="0" style="stop-color:#FFD68C"/>
		<stop  offset="1" style="stop-color:#F7B63C"/>
	</linearGradient>
	<path class="st17" d="M1709.4,738.66c-22.96,0-45.38,1.72-67.07,4.99c-220.3,24.29-346.41,120.89-418.5,228.14
		c2.71,3.38,5.37,6.92,7.95,10.66l-17.23,18.58l44.52,44.52c4.21,3.97,6.88,9.57,6.88,15.81c0,12.04-9.75,21.79-21.79,21.79
		c-0.89,0-1.74-0.16-2.6-0.26l-49.42,6.2l68.25,16.41v0.01l0.59-0.04l1.09-0.07l0.67-0.04l0,0.04c2.64-0.07,5.32,0.06,8.03,0.47
		c24.61,3.79,41.5,26.82,37.7,51.43c-1.74,11.31-7.57,20.95-15.73,27.75h165.26v27.59h-33.38v59.99v60.04h-39.15l-0.01,0.17h72.55
		v27.35v27.59h-33.38v59.99v11.89c50.63,0.88,91.38,34.62,91.38,76.2c0,32.38-24.69,60.02-59.52,71.1
		c0.95,5.17,1.52,10.48,1.52,15.93c0,30.85-15.99,57.91-40.1,73.51c26.75,6.86,54.59,11.06,83.27,12.25
		c2.13,0.1,4.34,0.18,6.61,0.23c0.57,0.02,1.14,0.03,1.71,0.05c2.98,0.06,6.04,0.11,9.26,0.11c3.11,0,6.19-0.18,9.24-0.06
		c289.12,10.95,410.03-131.21,410.03-131.21l0-0.02c24.17-22.71,38.63-51.54,38.63-82.91c0-45.82-30.84-86.21-77.73-110.05
		l0.02-0.06c-47.3-23.77-67.56-48.41-67.56-88.74c0-40.57,28.33-75.2,68.25-88.99l-0.04-0.21
		c119.19-54.72,149.58-123.86,149.58-212.14C2049.2,853.27,1897.06,738.66,1709.4,738.66z M1473.39,1072.19
		c-2.53,19.96-7.98,33.82-14.32,33.82c-2.21,0-4.31-1.69-6.23-4.73c-0.89,0.79-1.8,1.57-2.73,2.34
		c-2.43,32.91-8.02,55.95-14.53,55.95c-5.43,0-10.21-16.02-13.06-40.4c-7.12,2.62-14.73,4.54-22.67,5.64
		c-0.36,31.21-7.27,56.13-15.78,56.13c-8.51,0-15.43-24.94-15.78-56.17c-43.98-6.17-77.46-37.46-77.46-75.16
		c0-42.13,41.8-76.28,93.36-76.28c51.56,0,93.36,34.15,93.36,76.28C1477.55,1057.47,1476.09,1065.05,1473.39,1072.19z
		 M1523.97,928.46c0-5.77,0.1-11.45,0.27-17.04c-0.16-1.84-0.27-3.68-0.27-5.55c0-42.13,41.8-76.28,93.36-76.28
		c51.56,0,93.36,34.15,93.36,76.28c0,6.73-1.08,13.25-3.08,19.47c-2,38.29-11.09,67.2-22.01,67.2c-6.09,0-11.61-9.02-15.66-23.65
		c-10.38,5.79-22.25,9.91-35.05,11.9c-3.62,27.9-11.31,47.16-20.23,47.16c-6.34,0-12.05-9.77-16.13-25.44
		c-6.91,44.27-19.82,74.07-34.6,74.07C1541.87,1076.56,1523.97,1010.25,1523.97,928.46z M1679.93,1466.3
		c-58.17,0-105.33-38.53-105.33-86.07c0-47.53,47.16-86.06,105.33-86.06c58.18,0,105.33,38.53,105.33,86.06
		C1785.26,1427.77,1738.1,1466.3,1679.93,1466.3z"/>
	<path class="st18" d="M1200.39,1048.34l-12.93-12.93c-2.84,5.91-5.6,11.82-8.18,17.72L1200.39,1048.34z"/>
	<path class="st19" d="M1384.19,973.32c-51.56,0-93.36,34.15-93.36,76.28c0,37.7,33.48,68.99,77.46,75.16
		c0.35,31.23,7.27,56.17,15.78,56.17c8.51,0,15.43-24.92,15.78-56.13c7.95-1.1,15.55-3.02,22.67-5.64
		c2.85,24.39,7.64,40.4,13.06,40.4c6.52,0,12.11-23.04,14.53-55.95c0.93-0.76,1.84-1.55,2.73-2.34c1.91,3.04,4.02,4.73,6.23,4.73
		c6.34,0,11.79-13.86,14.32-33.82c2.7-7.14,4.16-14.72,4.16-22.58C1477.55,1007.48,1435.75,973.32,1384.19,973.32z"/>
	<path class="st20" d="M1377.81,1507.82c0.64,0.09,1.28,0.17,1.98,0.17h78.23v27.34h-4.55h-31.32h-51.7
		c19.32,0,37.12,6.34,51.6,16.93c13.2,9.66,23.59,22.89,29.72,38.31c2.09,5.23,3.68,10.71,4.72,16.39
		c34.82-11.08,59.52-38.73,59.52-71.1c0-41.58-40.75-75.32-91.38-76.2v48.15H1377.81z"/>
	<path class="st21" d="M1379.8,1332.85h5.68l0.01-0.17h-7.68C1378.45,1332.78,1379.1,1332.85,1379.8,1332.85z"/>
	<path class="st22" d="M1598.53,1002.49c4.08,15.68,9.8,25.44,16.13,25.44c8.91,0,16.61-19.26,20.23-47.16
		c12.8-1.99,24.68-6.11,35.05-11.9c4.04,14.62,9.56,23.65,15.66,23.65c10.92,0,20.01-28.91,22.01-67.2c2-6.21,3.08-12.74,3.08-19.47
		c0-42.13-41.8-76.28-93.36-76.28c-51.56,0-93.36,34.15-93.36,76.28c0,1.87,0.11,3.72,0.27,5.55c-0.18,5.59-0.27,11.27-0.27,17.04
		c0,81.8,17.89,148.11,39.96,148.11C1578.72,1076.56,1591.62,1046.76,1598.53,1002.49z"/>
	<path class="st23" d="M780.55,1272.64c0-39.88,26.68-73.46,63.14-84.05c-1.69-1.06-3.3-2.24-4.83-3.52h-18.19h-59.52
		c-18.39,0-35.45,5.7-49.54,15.39c-5.5,3.78-10.5,8.23-15,13.14c-3.98,4.36-7.52,9.1-10.57,14.19c-1.72,2.88-3.3,5.85-4.69,8.93
		c-4.95,10.97-7.76,23.1-7.76,35.92c0,19.91,6.71,38.2,17.9,52.91c2.3,3.02,4.74,5.94,7.41,8.64
		c11.29,11.43,25.73,19.68,41.88,23.54c2.85,0.68,5.76,1.22,8.71,1.61c3.82,0.51,7.69,0.87,11.65,0.87c-4.4,0-8.7,0.43-12.93,1.05
		c-3.89,0.58-7.71,1.38-11.41,2.45c-17,4.92-31.88,14.8-42.92,28.04c-3.52,4.21-6.62,8.77-9.31,13.6
		c-6.98,12.58-10.98,27.03-10.98,42.43c0,0.64,0.08,1.27,0.09,1.92c8.69,10.56,14.75,29.95,18.93,52.49
		c14.79,18.59,36.96,31,62.09,32.83c2.14,0.16,4.27,0.32,6.44,0.32h106.95c-48.36,0-87.56-39.2-87.56-87.56
		c0-48.36,39.2-87.57,87.56-87.57C819.75,1360.2,780.55,1320.99,780.55,1272.64z"/>
	<path class="st24" d="M1265.1,1195.55c-0.98,0-2-0.04-2.98-0.04l-0.54-0.01c-15.9-0.06-32.22-0.53-48.82-1.34
		c13.71,10.83-6.14,6.39-32.49-1.91c-27.36-1.89-55.07-4.44-82.36-7.18h-64.21c-27.29,2.74-55,5.28-82.35,7.18
		c-26.35,8.3-46.21,12.75-32.49,1.91c-16.61,0.8-32.93,1.27-48.83,1.34l-0.54,0.01c-0.98,0-2,0.04-2.98,0.04v-0.04
		c-8.27-0.21-16.11-2.68-22.83-6.93c-36.46,10.59-63.14,44.17-63.14,84.05c0,48.36,39.2,87.57,87.56,87.57h26.26h563.65v-27.35
		h-72.55h-5.68c-0.7,0-1.35-0.08-1.98-0.17h-509.7c-33.11,0-60.05-26.92-60.05-60.01v-0.03c0-0.74,0.09-1.48,0.12-2.22
		c0.05-1.3,0.07-2.62,0.2-3.9c0.07-0.72,0.23-1.41,0.32-2.12c0.18-1.28,0.33-2.57,0.59-3.82c0.17-0.83,0.43-1.63,0.63-2.46
		c0.27-1.09,0.51-2.21,0.85-3.29c0.22-0.7,0.51-1.37,0.75-2.05c0.41-1.16,0.79-2.33,1.27-3.46l0.63-1.29
		c0.6-1.34,1.21-2.67,1.9-3.95l0.72-1.17c0.73-1.28,1.47-2.55,2.29-3.77l0.43-0.57c0.96-1.39,1.96-2.75,3.04-4.05
		c0.38-0.46,0.81-0.87,1.2-1.32c0.87-1,1.74-2.01,2.68-2.94c0.51-0.51,1.07-0.96,1.61-1.46c0.88-0.82,1.73-1.66,2.66-2.42
		c0.71-0.58,1.47-1.09,2.2-1.64c0.8-0.61,1.58-1.25,2.42-1.81c0.91-0.62,1.87-1.14,2.82-1.71c0.71-0.43,1.4-0.9,2.13-1.3
		c0.88-0.48,1.81-0.87,2.71-1.31c0.85-0.41,1.66-0.86,2.53-1.22c0.48-0.2,0.98-0.35,1.46-0.53c3.16-1.24,6.42-2.28,9.8-2.97
		c1.23-0.25,2.49-0.4,3.75-0.57c2.23-0.31,4.5-0.51,6.81-0.57c0.51-0.02,1.02-0.08,1.53-0.08h469.43h87.1h33.38v-27.59h-165.26
		c-7.64,6.36-17.32,10.18-27.67,10.44L1265.1,1195.55z"/>
	<path class="st8" d="M808.06,1272.67c0,33.09,26.94,60.01,60.05,60.01h509.7h7.68h39.15v-60.04H808.06V1272.67z"/>
	<path class="st25" d="M868.11,1212.66c-0.52,0-1.02,0.06-1.53,0.08c-2.31,0.06-4.57,0.26-6.81,0.57c-1.25,0.18-2.52,0.32-3.75,0.57
		c-3.39,0.69-6.65,1.73-9.8,2.97c-0.48,0.18-0.98,0.33-1.46,0.53c-0.87,0.37-1.68,0.82-2.53,1.22c-0.91,0.44-1.84,0.83-2.71,1.31
		c-0.73,0.39-1.42,0.87-2.13,1.3c-0.95,0.57-1.91,1.09-2.82,1.71c-0.84,0.56-1.62,1.2-2.42,1.81c-0.73,0.55-1.5,1.06-2.2,1.64
		c-0.93,0.76-1.78,1.6-2.66,2.42c-0.53,0.49-1.1,0.95-1.61,1.46c-0.94,0.93-1.8,1.94-2.68,2.94c-0.39,0.45-0.82,0.86-1.2,1.32
		c-1.07,1.3-2.07,2.66-3.04,4.05l-0.43,0.57c-0.82,1.21-1.56,2.49-2.29,3.77l-0.72,1.17c-0.7,1.28-1.3,2.62-1.9,3.95l-0.63,1.29
		c-0.48,1.12-0.86,2.3-1.27,3.46c-0.24,0.69-0.54,1.36-0.75,2.05c-0.34,1.08-0.57,2.2-0.85,3.29c-0.21,0.82-0.46,1.62-0.63,2.46
		c-0.26,1.25-0.41,2.54-0.59,3.82c-0.1,0.71-0.25,1.41-0.32,2.12c-0.13,1.28-0.15,2.6-0.2,3.9c-0.03,0.74-0.12,1.48-0.12,2.22
		h616.58v-59.99h-87.1H868.11z"/>
	<path class="st8" d="M808.06,1447.8c0,33.09,26.94,60.02,60.05,60.02h509.7h46.83v-48.15v-11.89H808.06V1447.8z"/>
	<path class="st25" d="M868.11,1387.79c-0.52,0-1.02,0.06-1.53,0.08c-2.31,0.05-4.57,0.26-6.81,0.57c-1.25,0.17-2.52,0.32-3.75,0.57
		c-3.39,0.7-6.65,1.72-9.8,2.96c-0.48,0.19-0.98,0.33-1.46,0.54c-0.87,0.37-1.68,0.82-2.53,1.22c-0.91,0.43-1.84,0.83-2.71,1.31
		c-0.73,0.4-1.42,0.87-2.13,1.29c-0.95,0.57-1.91,1.1-2.82,1.71c-0.84,0.57-1.62,1.2-2.42,1.81c-0.73,0.55-1.5,1.06-2.2,1.65
		c-0.93,0.76-1.78,1.6-2.66,2.41c-0.53,0.49-1.1,0.95-1.61,1.46c-0.94,0.94-1.8,1.95-2.68,2.95c-0.39,0.45-0.82,0.86-1.2,1.32
		c-1.07,1.3-2.07,2.66-3.04,4.05l-0.43,0.57c-0.82,1.22-1.56,2.5-2.29,3.77l-0.72,1.17c-0.7,1.29-1.3,2.62-1.9,3.95l-0.63,1.29
		c-0.48,1.12-0.86,2.3-1.27,3.46c-0.24,0.69-0.54,1.35-0.75,2.05c-0.34,1.08-0.57,2.19-0.85,3.29c-0.21,0.82-0.46,1.62-0.63,2.45
		c-0.26,1.25-0.41,2.54-0.59,3.82c-0.1,0.71-0.25,1.41-0.32,2.12c-0.13,1.29-0.15,2.6-0.2,3.9c-0.03,0.75-0.12,1.47-0.12,2.22
		h616.58v-59.99h-87.1H868.11z"/>
	<path class="st23" d="M1458.03,1622.89c0-5.45-0.57-10.76-1.52-15.93c-1.04-5.68-2.64-11.16-4.72-16.39
		c-6.13-15.43-16.52-28.65-29.72-38.31c-14.48-10.59-32.28-16.93-51.6-16.93h-106.95c48.36,0,87.57,39.21,87.57,87.57
		c0,48.36-39.21,87.56-87.57,87.56h106.95c17.51,0,33.78-5.2,47.47-14.05C1442.03,1680.81,1458.03,1653.74,1458.03,1622.89z"/>
	<path class="st26" d="M1351.07,1622.89c0-48.36-39.21-87.57-87.57-87.57h106.95h51.7h31.32h4.55v-27.34h-78.23
		c-0.7,0-1.35-0.08-1.98-0.17h-509.7c-33.11,0-60.05-26.92-60.05-60.02v-0.02c0-0.75,0.09-1.48,0.12-2.22
		c0.05-1.3,0.07-2.61,0.2-3.9c0.07-0.71,0.23-1.41,0.32-2.12c0.18-1.28,0.33-2.57,0.59-3.82c0.17-0.84,0.43-1.63,0.63-2.45
		c0.27-1.1,0.51-2.21,0.85-3.29c0.22-0.7,0.51-1.36,0.75-2.05c0.41-1.16,0.79-2.34,1.27-3.46l0.63-1.29c0.6-1.34,1.21-2.67,1.9-3.95
		l0.72-1.17c0.73-1.28,1.47-2.55,2.29-3.77l0.43-0.57c0.96-1.39,1.96-2.75,3.04-4.05c0.38-0.46,0.81-0.88,1.2-1.32
		c0.87-1,1.74-2.01,2.68-2.95c0.51-0.51,1.07-0.96,1.61-1.46c0.88-0.82,1.73-1.66,2.66-2.41c0.71-0.59,1.47-1.1,2.2-1.65
		c0.8-0.61,1.58-1.25,2.42-1.81c0.91-0.61,1.87-1.14,2.82-1.71c0.71-0.43,1.4-0.89,2.13-1.29c0.88-0.48,1.81-0.88,2.71-1.31
		c0.85-0.4,1.66-0.85,2.53-1.22c0.48-0.2,0.98-0.35,1.46-0.54c3.16-1.24,6.42-2.27,9.8-2.96c1.23-0.25,2.49-0.4,3.75-0.57
		c2.23-0.32,4.5-0.52,6.81-0.57c0.51-0.02,1.02-0.08,1.53-0.08h469.43h87.1h33.38v-27.59H894.37h-26.26
		c-48.36,0-87.56,39.2-87.56,87.57c0,48.36,39.2,87.56,87.56,87.56H761.16h-6.53h-57.24c1.01,9.25,1.8,18.55,2.42,27.59h7.17h87.1
		h469.43l1.23,0.06c2.55,0.05,5.06,0.29,7.53,0.65c1.11,0.17,2.24,0.29,3.33,0.51c3.73,0.77,7.33,1.89,10.77,3.32l0.49,0.18
		c1.02,0.43,1.98,0.95,2.96,1.43c0.76,0.37,1.55,0.7,2.29,1.1c0.73,0.4,1.42,0.87,2.13,1.3c0.94,0.57,1.91,1.1,2.82,1.71
		c1.09,0.73,2.11,1.55,3.14,2.35c0.49,0.38,1,0.71,1.48,1.11c1.05,0.87,2.03,1.81,3.02,2.74l1.25,1.14c0.77,0.77,1.46,1.6,2.19,2.41
		c0.56,0.62,1.16,1.21,1.69,1.86c0.75,0.91,1.42,1.87,2.11,2.82c0.44,0.61,0.93,1.18,1.35,1.8c0.77,1.13,1.45,2.33,2.14,3.52
		c0.28,0.48,0.6,0.94,0.87,1.43c0.7,1.28,1.3,2.61,1.91,3.95l0.62,1.3c0.48,1.12,0.86,2.29,1.27,3.45c0.24,0.69,0.54,1.36,0.75,2.06
		c0.41,1.3,0.71,2.64,1.03,3.97c0.14,0.6,0.33,1.17,0.46,1.77c0.28,1.36,0.45,2.75,0.63,4.13c0.08,0.61,0.21,1.2,0.28,1.82
		c0.13,1.28,0.15,2.59,0.2,3.89c0.02,0.75,0.11,1.47,0.11,2.22v0.02c0,33.09-26.94,60.02-60.05,60.02H753.8
		c-0.63,0.09-1.28,0.17-1.98,0.17h-42.56h-19.71c-4.38,6.72-9.79,12.69-15.95,17.73v9.61h5.82h19.95h537.87h26.26
		C1311.87,1710.46,1351.07,1671.25,1351.07,1622.89z"/>
	<path class="st8" d="M706.98,1682.94h2.34h44.48h509.7c33.11,0,60.05-26.93,60.05-60.02v-0.02H706.98V1682.94z"/>
	<path class="st25" d="M1323.56,1622.91c0-0.75-0.09-1.48-0.11-2.22c-0.05-1.3-0.07-2.61-0.2-3.89c-0.06-0.62-0.2-1.21-0.28-1.82
		c-0.19-1.38-0.36-2.78-0.63-4.13c-0.13-0.6-0.32-1.17-0.46-1.77c-0.32-1.33-0.62-2.67-1.03-3.97c-0.22-0.7-0.51-1.37-0.75-2.06
		c-0.41-1.16-0.79-2.33-1.27-3.45l-0.62-1.3c-0.61-1.33-1.21-2.67-1.91-3.95c-0.27-0.49-0.59-0.95-0.87-1.43
		c-0.69-1.19-1.38-2.38-2.14-3.52c-0.42-0.62-0.91-1.2-1.35-1.8c-0.69-0.95-1.36-1.91-2.11-2.82c-0.53-0.64-1.13-1.23-1.69-1.86
		c-0.73-0.81-1.42-1.64-2.19-2.41l-1.25-1.14c-0.99-0.93-1.97-1.87-3.02-2.74c-0.47-0.39-0.99-0.73-1.48-1.11
		c-1.03-0.8-2.05-1.62-3.14-2.35c-0.91-0.61-1.88-1.14-2.82-1.71c-0.71-0.43-1.4-0.89-2.13-1.3c-0.74-0.4-1.53-0.73-2.29-1.1
		c-0.98-0.48-1.95-1-2.96-1.43l-0.49-0.18c-3.44-1.43-7.04-2.56-10.77-3.32c-1.09-0.22-2.22-0.34-3.33-0.51
		c-2.47-0.36-4.98-0.59-7.53-0.65l-1.23-0.06H794.08h-87.1v59.99H1323.56z"/>
	<path class="st23" d="M868.87,1105.38l0.68,0.04l1.09,0.07c62.01,3.51,129.17,15.52,172.38,23.82l-36.81-36.81
		c-1.32,0.74-2.43,1.47-3.13,2.2c-6.71,6.88-14.05,3.25-18.17,0.12l-52.06-6.54l-72,17.62c2.7-0.41,5.38-0.54,8.03-0.47V1105.38z"/>
	<path class="st23" d="M1127.58,1122.13c39.4-6.88,87.46-14,132.81-16.61v-0.01l-68.25-16.41l-50.38,6.32
		C1141.76,1095.42,1134.95,1111.14,1127.58,1122.13z"/>
	<path class="st23" d="M1026.2,904.08c17.09-11.04,18.67-36.86,18.32-49.36c-0.21-2.14-0.34-4.42-0.43-6.8l-0.02-0.21l0.02,0
		c-0.03-0.85-0.04-1.74-0.05-2.62c-0.85,0.61-1.83,1.04-2.95,1.04c-2.86,0-5.19-2.32-5.19-5.19c0-2.87,2.32-5.19,5.19-5.19
		c1.15,0,2.16,0.45,3.02,1.09l0-0.11c0.05-0.02,14.75-5.52,19.16-21.12c3.79,6.43,12.09,13.72,29.3,20.07l0.05,1.32
		c0.9-0.75,2.01-1.25,3.27-1.25c2.86,0,5.19,2.32,5.19,5.19c0,2.86-2.32,5.19-5.19,5.19c-1.23,0-2.31-0.49-3.2-1.2
		c-0.03,2.2-0.09,4.3-0.18,6.28h0.02c-2.36,49.33,19.91,53.8,19.91,53.8l-0.08,0.18c11.93,2.53,24.24,6.23,36.76,11.36
		c2.06,0.83,4.3,1.77,6.66,2.84l0.32,0.14v0c8.06,3.64,17.66,8.7,27.81,15.57c11.68-40.33-59.3-53.55-68.63-71.43
		c-10.81-20.71,23.43-50.9-14.22-77.02c-31.91-22.15-54.2,4.57-60.25,13.23c-14.96-1.97-37.41-0.25-26.87,31.22
		c15.3,45.64-36.59,27.58-36.77,69.34c-0.04,8.09-2.06,14.84-5.06,20.65c2.59-1.24,5.05-2.34,7.35-3.31
		C983.05,916.17,1000.37,908.67,1026.2,904.08z"/>
	<path class="st23" d="M1120.92,1110.69c0,0-6.58,8.33-12.2,14.82c1.41-0.26,2.82-0.52,4.25-0.78
		C1114.87,1121.21,1117.44,1116.65,1120.92,1110.69z"/>
	<path class="st23" d="M1070.22,1115.17l31.17-31.17h-71.38l-0.19,0.03c0,0-1.75,0.47-4.34,1.22l29.91,29.92H1070.22z"/>
	<path class="st23" d="M1104.06,1126.38c2.34-4.02,6.14-10.09,11.9-18.88c0,0-31.41,39.8-4.83-3.35c0,0,1.32-2.66,2.97-6.35
		l-32.95,32.95C1088.09,1129.39,1095.74,1127.93,1104.06,1126.38z"/>
	<path class="st23" d="M1128.74,1110.62c0,0-4.92,6.74-9.88,13.06c1.04-0.19,2.13-0.38,3.18-0.57
		C1125.03,1117.25,1128.74,1110.62,1128.74,1110.62z"/>
	<path class="st27" d="M1092.54,851.21h-0.02c-1.53,31.24-11.75,36.71-24.16,36.71c-11.72,0-21.51-8.7-23.84-33.2
		c0.34,12.5-1.24,38.32-18.32,49.36c-0.88,0.56-1.71,1.18-2.68,1.66c0,0,11.82,24.29,46.08,22.46c32.63-1.75,41.96-21.14,42.78-23
		l0.08-0.18C1112.45,905.02,1090.18,900.55,1092.54,851.21z"/>
	<polygon class="st27" points="1044.07,847.71 1044.09,847.92 1044.09,847.72 	"/>
	<path class="st28" d="M1068.36,887.93c12.41,0,22.63-5.47,24.16-36.71c0.09-1.98,0.15-4.09,0.18-6.28c0.89,0.71,1.97,1.2,3.2,1.2
		c2.86,0,5.19-2.32,5.19-5.19c0-2.87-2.32-5.19-5.19-5.19c-1.26,0-2.37,0.51-3.27,1.25l-0.05-1.32
		c-17.21-6.36-25.51-13.64-29.3-20.07c-4.42,15.61-19.12,21.1-19.16,21.12l0,0.11c-0.86-0.64-1.87-1.09-3.02-1.09
		c-2.86,0-5.19,2.32-5.19,5.19c0,2.86,2.32,5.19,5.19,5.19c1.12,0,2.11-0.43,2.95-1.04c0.02,0.88,0.02,1.77,0.05,2.62l0,0.2
		c0.09,2.39,0.22,4.66,0.43,6.8C1046.85,879.23,1056.64,887.93,1068.36,887.93z"/>
	<path class="st28" d="M1187.46,1035.41l12.93,12.93l-21.11,4.79l-19.19,4.35l-12.41,2.82l1.96,1.95l-35.54,35.54
		c-1.66,3.7-2.97,6.35-2.97,6.35c-26.57,43.16,4.83,3.35,4.83,3.35c-5.76,8.79-9.56,14.86-11.9,18.88c1.53-0.28,3.11-0.57,4.67-0.86
		c5.61-6.49,12.2-14.82,12.2-14.82c-3.48,5.95-6.05,10.52-7.95,14.04c1.95-0.35,3.89-0.71,5.89-1.06
		c4.95-6.32,9.88-13.06,9.88-13.06s-3.71,6.64-6.69,12.49c1.83-0.32,3.66-0.65,5.53-0.98c7.38-10.99,14.18-26.71,14.18-26.71
		l50.38-6.32l49.42-6.2c0.86,0.11,1.71,0.26,2.6,0.26c12.04,0,21.79-9.75,21.79-21.79c0-6.25-2.66-11.84-6.88-15.81l-44.52-44.52
		l-29.57,31.9L1187.46,1035.41z"/>
	<path class="st29" d="M1114.1,1097.8l35.54-35.54l-1.96-1.95l-11.3-11.3l-35,35l-31.17,31.17h-14.83l-29.91-29.92
		c-5.29,1.55-14.13,4.37-19.27,7.24l36.81,36.81c8.64,1.66,16.31,3.16,22.8,4.43c4.55-0.89,9.7-1.89,15.34-2.99L1114.1,1097.8z"/>
	<path class="st29" d="M977.72,1060.48l25.36,6.23c0,0,1.11-0.35,2.94-0.89l-16.81-16.82L977.72,1060.48z"/>
	<path class="st30" d="M823.13,1157.33l0.19,0.89c1.9,10.93,7.61,20.25,15.55,26.86c1.53,1.28,3.14,2.46,4.83,3.52
		c6.72,4.24,14.56,6.71,22.83,6.93v0.04c0.97,0,2-0.04,2.98-0.04l0.54-0.01c15.9-0.06,32.22-0.53,48.83-1.34
		c1.66-1.3,3.79-2.83,6.47-4.61c52.77-34.87,79.25-40.02,79.25-40.02s4.31-1.72,9.77,0.61v0l28.07-0.6l0.77-11.95
		c1.91,0.12,10.04-1.4,22.62-3.86c-6.49-1.27-14.16-2.77-22.8-4.43c-43.21-8.29-110.37-20.3-172.38-23.82l-1.09-0.07l-0.68-0.04
		v0.04c-2.64-0.07-5.32,0.06-8.03,0.47c-16.92,2.61-30.18,14.29-35.59,29.34C822.78,1142.08,821.94,1149.63,823.13,1157.33z"/>
	<path class="st28" d="M1212.76,1194.16c-10.74-0.52-21.58-1.16-32.49-1.91C1206.62,1200.55,1226.47,1204.99,1212.76,1194.16z"/>
	<path class="st30" d="M1011.05,1171.55c-15.59,5.74-39.54,14.34-59.7,20.7c27.36-1.89,55.06-4.44,82.35-7.18
		c10.79-1.08,21.5-2.19,32.11-3.31c-8.51-0.89-16.96-1.79-25.29-2.68l0.58-9.07l-21.47-1.64
		C1017.2,1169.28,1014.34,1170.34,1011.05,1171.55z"/>
	<path class="st28" d="M951.35,1192.25c20.16-6.35,44.11-14.96,59.7-20.7c3.29-1.21,6.15-2.27,8.58-3.18l21.47,1.64l1.32-20.49
		l-28.07,0.6v0c-5.45-2.33-9.77-0.61-9.77-0.61s-26.48,5.15-79.25,40.02c-2.68,1.78-4.81,3.3-6.47,4.61
		C905.15,1204.99,925,1200.55,951.35,1192.25z"/>
	<path class="st31" d="M1122.05,1123.11c-1.05,0.19-2.14,0.38-3.18,0.57c-2,0.36-3.94,0.71-5.89,1.06
		c-1.43,0.26-2.84,0.52-4.25,0.78c-1.57,0.29-3.14,0.58-4.67,0.86c-8.31,1.55-15.97,3.02-22.9,4.36c-5.65,1.09-10.79,2.1-15.34,2.99
		c-12.58,2.45-20.72,3.98-22.62,3.86l-0.77,11.95l-1.32,20.49l-0.58,9.07c8.33,0.88,16.78,1.78,25.29,2.68
		c10.61,1.12,21.31,2.23,32.1,3.31c27.29,2.74,55,5.28,82.36,7.18c10.91,0.75,21.75,1.39,32.49,1.91c16.6,0.8,32.93,1.27,48.82,1.34
		l0.54,0.01c0.98,0,2,0.04,2.98,0.04l0-0.04c10.35-0.27,20.03-4.08,27.67-10.44c8.15-6.79,13.99-16.43,15.73-27.75
		c3.79-24.61-13.09-47.64-37.7-51.43c-2.71-0.41-5.39-0.54-8.03-0.47l0-0.04l-0.67,0.04l-1.09,0.07l-0.59,0.04
		c-45.35,2.61-93.41,9.73-132.81,16.61C1125.71,1122.46,1123.88,1122.78,1122.05,1123.11z"/>
	<path class="st28" d="M1003.07,1094.69c0.7-0.72,1.81-1.46,3.13-2.2c5.15-2.87,13.98-5.69,19.27-7.24
		c2.59-0.75,4.34-1.22,4.34-1.22l0.19-0.03c49.64-8.36-0.85-5.81-0.85-5.81c65.82-9.14-0.86-5.84-0.86-5.84
		c61-11.66-5.2-5.83-5.2-5.83s25.5-5.38,22.48-6.45c-8.43-3-31.38,3.32-39.55,5.75c-1.84,0.54-2.94,0.89-2.94,0.89l-25.36-6.23
		l-8.31-2.04l-38.76-9.52l15.98-15.99l-29.56-31.9l-44.52,44.52c-4.21,3.98-6.88,9.57-6.88,15.81c0,12.04,9.75,21.79,21.79,21.79
		c0.89,0,1.74-0.16,2.6-0.26l42.78,5.37l52.06,6.54C989.02,1097.94,996.36,1101.57,1003.07,1094.69z"/>
	<path class="st32" d="M947.62,1034c0,0,10.26-9.38,24.76-20.14l-2.96,44.59l8.31,2.04l11.49-11.49l16.81,16.82
		c8.17-2.43,31.12-8.75,39.55-5.75c3.01,1.07-22.48,6.45-22.48,6.45s66.2-5.83,5.2,5.83c0,0,66.68-3.3,0.86,5.84
		c0,0,50.49-2.55,0.85,5.81h71.38l35-35l11.3,11.3l12.41-2.82l-1.27-43.93c14.72,10.89,25.17,20.45,25.17,20.45l0.98-1.06
		l29.57-31.9l17.23-18.58c-2.58-3.74-5.23-7.28-7.95-10.66c-12.73-15.84-26.76-27.78-39.9-36.68
		c-10.15-6.88-19.75-11.93-27.81-15.57v0l-0.32-0.14c-2.37-1.06-4.6-2.01-6.66-2.84c-12.52-5.13-24.83-8.83-36.76-11.36
		c-0.82,1.86-10.15,21.25-42.78,23c-34.26,1.83-46.08-22.46-46.08-22.46c0.96-0.48,1.8-1.1,2.68-1.66
		c-25.82,4.59-43.15,12.09-46.71,13.72c-2.3,0.97-4.75,2.07-7.35,3.31c-20.6,9.82-49.59,28.34-72.29,61.35l17.22,18.58l29.56,31.9
		L947.62,1034z"/>
	<path class="st33" d="M545.15,1554.08l-13.97,36.51l29.13,5.36c-0.45-11.72-0.92-24.63-1.32-37.18L545.15,1554.08z"/>
	<path class="st5" d="M557.94,1510.51c0-35.58,28.91-65.17,28.91-65.17c2.62-2.03,4.77-4.33,6.6-6.78
		c-1.23-0.09-2.48-0.12-3.75-0.09c-19.56,0.63-34.91,17-34.28,36.56c0.05,1.62,0.25,3.2,0.51,4.76h-0.04
		c1.98,31.4-11.23,74.11-11.23,74.11l0.49,0.17l13.84,4.7C558.39,1540.06,557.94,1522.2,557.94,1510.51z"/>
	<path class="st33" d="M423.14,1598.78c2.25-0.95,4.3-1.82,6.04-2.55c-13-1.52-17.51-2.54-17.36-3.22h-16.38
		c3.67,0.62,6.54,1.08,6.54,1.08s-65.11-1.27-4.7,6.05c0,0-65.42,1.23-0.46,5.77c0,0-47.67,3.63-3.28,5.63
		c9.66-4.25,18.24-7.94,25.18-10.89C416.9,1599.9,419.31,1599.27,423.14,1598.78z"/>
	<path class="st33" d="M203.91,1654.55c-0.67,0.13-1.34,0.27-2.01,0.4c0.95,0.99,1.92,2.02,2.91,3.06L203.91,1654.55z"/>
	<path class="st33" d="M149.35,1666.64c6.64,14.68,11.46,25.84,11.46,25.84c-1.04,0.38-2.01,0.68-2.97,0.96
		c0.95,0.02,22.91,0.6,54,0.53c-6.19-9.04-13.56-21.05-21.73-36.61C176.64,1660.19,162.98,1663.27,149.35,1666.64z"/>
	<path class="st34" d="M149.35,1666.64c-16.78-37.05-45.27-96.57-37.75-56.05c10.49,56.58,23.98,77.09,23.98,77.09
		s4.54,10.98,22.27,5.76c0.96-0.28,1.93-0.58,2.97-0.96C160.81,1692.48,155.99,1681.32,149.35,1666.64z"/>
	<path class="st34" d="M400.68,1690.66c11.91-2.09,23.91-4.58,35.86-7.63v0c13.9,3.58,35.38,8.8,61.2,14.1
		c25.22,5.18,54.53,10.41,84.94,14.21c2.01,0.25,4.03,0.48,6.05,0.72c-55.76-14.42-130.74-51.27-130.74-51.27
		C441.46,1672.03,421.29,1682.04,400.68,1690.66z"/>
	<path class="st34" d="M237.29,1694.75c8.61-4.61,17.24-9.13,25.82-13.56l-1.8-3.42c25.85-16.54,65.76-36.08,101-52.22
		c-25.13,2.32-57.69,6.09-94.91,12.16c-20.33,3.32-42.04,7.33-64.69,12.16l1.21,4.68l0.9,3.46
		C215.08,1668.94,227.24,1682.94,237.29,1694.75z"/>
	<path class="st35" d="M673.6,1700.85c6.17-5.04,11.58-11.01,15.95-17.73c7.74-11.88,12.33-26,12.46-41.05
		c0.01-1.06-0.09-2.09-0.13-3.13H596.03c-1.38,1.01-2.85,1.92-4.5,2.6c-3.2,1.3-6.5,1.69-9.73,1.44l-0.04,0.18l-1.04-0.3
		c-2.21-0.29-4.34-0.89-6.34-1.83l-7.26-2.09h-5.04c0,0-0.02-0.54-0.06-1.47l-78.37-22.57l-2.21-0.64l0.03-0.1
		c-7.25-2.43-31.13-10.21-41.5-10.95c-13.32-0.96-19.39-1.82-21.24-2.56c-6.94,2.96-15.52,6.65-25.18,10.89
		c-9.58,4.21-20.17,8.93-31.25,14.01c-35.25,16.14-75.15,35.68-101,52.22l1.8,3.42l16.95,32.11l7.16,13.56
		c0,0,22.29-5.01,52.3-14.28c18.57-5.73,40.09-13.09,61.16-21.91c20.61-8.62,40.78-18.63,57.3-29.88c0,0,74.98,36.85,130.74,51.27
		c13.37,3.46,25.64,5.64,35.5,5.7l0.25-0.08c1.5,0.05,2.98,0.14,4.5,0.1c12.48-0.36,24.24-3.92,34.54-9.87
		c2.64-1.52,5.14-3.25,7.57-5.07C671.93,1702.19,672.76,1701.53,673.6,1700.85z"/>
	<path class="st36" d="M237.29,1694.75c11.39,13.39,20.05,23.96,20.05,23.96c5.53-1.29,13.34-3.13,22.71-5.42l-16.95-32.11
		C254.53,1685.62,245.9,1690.15,237.29,1694.75z"/>
	<path class="st35" d="M440.41,1597.45c-4.31-0.44-8.01-0.84-11.23-1.22c-1.75,0.73-3.79,1.59-6.04,2.55
		C429.73,1597.92,440.41,1597.45,440.41,1597.45z"/>
	<path class="st35" d="M204.81,1658.01c-0.99-1.05-1.96-2.07-2.91-3.06c-15.19-15.84-24.93-23.15-14.39-2.56
		c0.88,1.73,1.73,3.32,2.6,4.97c8.18,15.56,15.55,27.56,21.73,36.61c12.26,17.93,19.9,24.4,19.9,24.4s8.61,13.04,25.6,0.36
		c0,0-8.66-10.57-20.05-23.96C227.24,1682.94,215.08,1668.94,204.81,1658.01z"/>
	<path class="st37" d="M673.69,1449.69c-1.35-1.64-2.74-3.15-4.22-4.34c-3.21-2.58-6.52-4.67-9.86-6.38
		c-0.02,0.02-0.66,1.14-2.35,2.73c10.03,6.26,16.73,17.37,16.73,30.06c0,0,0,45.4-27.95,99.61l-15.83-5.95l-26.88,64.02
		c-1.45,3.75-3.95,7.05-7.29,9.5h105.85h0.08c0,0,0.65-35.28-2.16-76.02c-0.62-9.04-1.41-18.33-2.42-27.59
		c-1.24-11.34-2.8-22.58-4.77-33.15C688.44,1479.63,682.38,1460.25,673.69,1449.69z"/>
	<path class="st37" d="M603.43,1476.53l0.04,0c-0.21-1.57-0.36-3.15-0.36-4.77c0-6.61,1.85-12.78,5-18.08
		c-22.27-0.7-21.26-8.33-21.26-8.33s-28.91,29.59-28.91,65.17c0,11.68,0.45,29.54,1.05,48.26c0.41,12.55,0.87,25.46,1.32,37.18
		l10.1,1.86l19.9-47.39l-0.48-0.18C589.83,1550.23,604.4,1507.97,603.43,1476.53z"/>
	<path class="st37" d="M562.08,1638.94h5.04l-5.1-1.47C562.06,1638.39,562.08,1638.94,562.08,1638.94z"/>
	<path class="st33" d="M640.5,1390.42c-1.97,19.96-15.43,27.84-25.41,27.09c-5.13-0.39-9.48-2.58-13.78-10.8
		c0.61,10.92-1.02,22.65-7.86,31.87c-1.82,2.45-3.97,4.75-6.6,6.78c0,0-1.01,7.63,21.26,8.33c6.18-10.38,17.48-17.36,30.44-17.36
		c6.88,0,13.27,1.99,18.71,5.38c1.7-1.59,2.34-2.71,2.35-2.73l0-0.01C659.61,1438.96,644.85,1428.17,640.5,1390.42z"/>
	<path class="st36" d="M615.08,1417.5c9.98,0.75,23.45-7.12,25.41-27.09c0.48-4.88,0.27-10.48-0.84-16.87
		c1.2,0.41,2.52,0.51,3.85,0.18c3.69-0.91,5.95-4.63,5.04-8.32c-0.86-3.52-4.29-5.7-7.8-5.11l-0.51,0.07
		c-2.77,0.68-4.73,2.96-5.16,5.61c-4.22,0.11-12.08-1.73-13.11-16.68c0,0-9.34,20.66-32.88,20.45l-1.54,28.69l9.39-2.3
		c1.47,4.31,2.92,7.78,4.37,10.55C605.61,1414.92,609.95,1417.12,615.08,1417.5z"/>
	<path class="st38" d="M621.96,1349.31c1.03,14.95,8.89,16.79,13.11,16.68c0.42-2.65,2.38-4.93,5.16-5.61l0.51-0.07
		c9.98-20.61-5.75-30.71-5.75-30.71c0.81-4.67-0.3-7.39-2.39-8.91c-5.26-3.81-16.69,0.21-19.52,1.3l-0.7,0.27
		c-0.44-10.86-11.29-10.69-21.57-8.05c-6.41-9.38-17.18-15.55-29.4-15.55c-19.66,0-35.59,15.94-35.59,35.6
		c0,19.65,15.93,35.59,35.59,35.59c4.67,0,9.12-0.93,13.21-2.56c5.33,1.72,10.12,2.44,14.46,2.48
		C612.62,1369.97,621.96,1349.31,621.96,1349.31z"/>
	<path class="st39" d="M493.2,1583.6v-3.18h-25.25c12.23,1.15,21.8,2.55,21.8,2.55L493.2,1583.6z"/>
	<path class="st39" d="M441.05,1591.7c-60.15-9.25,4.89-5.89,4.89-5.89s-23.02-4.4-22.44-5.39h-57.62l-52.93-91.67l-10.91,6.3
		l56.22,97.38v0.59h37.18h16.38C412.2,1591.32,441.05,1591.7,441.05,1591.7z"/>
	<path class="st36" d="M603.33,1629.43l26.88-64.02l-39.9-15l-19.9,47.39l-10.1-1.86l-29.13-5.36l-33.45-6.16l-4.53-0.84l-3.45-0.63
		c0,0-9.57-1.4-21.8-2.55c-14.95-1.41-33.86-2.45-44.26-0.12l-0.19,0.12c-0.58,0.99,22.44,5.39,22.44,5.39s-65.04-3.36-4.89,5.89
		c0,0-28.84-0.38-29.22,1.3c-0.16,0.68,4.36,1.7,17.36,3.22c3.21,0.38,6.92,0.79,11.23,1.22c0,0-10.68,0.47-17.27,1.32
		c-3.83,0.5-6.24,1.12-4.41,1.87c1.84,0.75,7.92,1.6,21.24,2.56c10.37,0.75,34.24,8.53,41.5,10.95l-0.03,0.1l2.21,0.64l78.37,22.57
		l5.1,1.47l7.26,2.09c2,0.94,4.13,1.54,6.34,1.83l1.04,0.3l0.04-0.18c3.22,0.25,6.53-0.13,9.73-1.44c1.66-0.68,3.12-1.59,4.5-2.6
		C599.38,1636.48,601.88,1633.18,603.33,1629.43z"/>
	<path class="st5" d="M608.11,1453.67c-3.15,5.3-5,11.46-5,18.08c0,1.62,0.15,3.2,0.36,4.77l-0.04,0
		c0.97,31.45-13.61,73.71-13.61,73.71l0.48,0.18l39.9,15l15.83,5.95c27.95-54.21,27.95-99.61,27.95-99.61
		c0-12.69-6.7-23.8-16.73-30.06c-5.44-3.39-11.83-5.38-18.71-5.38C625.59,1436.32,614.29,1443.3,608.11,1453.67z"/>
	<path class="st25" d="M940.91,698.06h477.82c21.96,0,39.76-17.8,39.76-39.76c0-21.96-17.8-39.76-39.76-39.76
		c-2.81,0-5.55,0.3-8.2,0.86c-1.32-40.91-34.88-73.69-76.11-73.69c-12.1,0-23.54,2.83-33.7,7.86
		c-8.96-60.79-61.33-107.45-124.6-107.45c-49.08,0-91.58,28.09-112.37,69.06c-6.42-1.41-13.08-2.17-19.92-2.17
		c-50.62,0-91.71,40.65-92.48,91.09c-3.36-0.76-6.86-1.16-10.44-1.16c-26.27,0-47.57,21.29-47.57,47.56
		C893.35,676.76,914.64,698.06,940.91,698.06z"/>
</g>
</svg>
